<svg id="レイヤー_1" data-name="レイヤー 1" xmlns="http://www.w3.org/2000/svg" viewBox="0 0 40 44.91"><defs><style>.cls-1{fill:#d3cbc5;}.cls-2{fill:#1a1a1a;}.cls-3{fill:#fff0de;}.cls-4{fill:gray;}.cls-5{fill:#333;}</style></defs><title>icon_3</title><ellipse class="cls-1" cx="20" cy="42.91" rx="20" ry="2"/><path class="cls-2" d="M17,32.5h6.76c5.86,0,7.79,3.49,7.79,7.79h0V42.5h-23V41C8.55,36.33,9.72,32.5,17,32.5Z"/><path class="cls-2" d="M31.55,43h-23A0.5,0.5,0,0,1,8,42.5V41c0-4.45,1.06-9,9-9h6.76C30.61,32,32,36.51,32,40.29V42.5A0.5,0.5,0,0,1,31.55,43ZM9,42H31V40.29C31,35.45,28.6,33,23.76,33H17c-6.6,0-8,3.2-8,8v1Z"/><path class="cls-3" d="M20.11,36.68s-4.64-5.18-2.35-5.18h4.68C24.76,31.5,20.11,36.68,20.11,36.68Z"/><path class="cls-3" d="M20.11,37.43L19.74,37c-1.09-1.22-3.58-4.19-3-5.44a1,1,0,0,1,1-.58h4.68a1.05,1.05,0,0,1,1.06.58c0.56,1.25-1.92,4.21-3,5.43ZM17.76,32a0.38,0.38,0,0,0-.16,0c-0.11.39,1,2.16,2.51,3.9,1.47-1.71,2.59-3.46,2.48-3.92H17.76Z"/><path d="M14.56,43C14.4,41.84,13,30.9,16.44,27a4.55,4.55,0,0,1,3.51-1.61,4.84,4.84,0,0,1,3.73,1.71c3.49,4,2.16,14.76,2,15.89h-3c0.51-3.77.67-11.69-1.28-13.92a1.82,1.82,0,0,0-1.47-.69,1.55,1.55,0,0,0-1.25.59c-1.9,2.17-1.76,10.17-1.24,14h-2.9Z"/><path class="cls-3" d="M7.5,24.5v-14h25v14C32.5,34.5,7.5,34.5,7.5,24.5Z"/><path class="cls-3" d="M20,33.5a20.18,20.18,0,0,1-9.3-2.05C7.67,29.83,6,27.36,6,24.5v-14A1.5,1.5,0,0,1,7.5,9h25A1.5,1.5,0,0,1,34,10.5v14C34,30.68,26.74,33.5,20,33.5ZM9,12V24.5c0,3.94,5.53,6,11,6s11-2.06,11-6V12H9Z"/><circle class="cls-2" cx="26.34" cy="23.7" r="1.77"/><ellipse class="cls-4" cx="20.11" cy="29.09" rx="1.97" ry="0.79"/><path class="cls-2" d="M34,13v5.22s-10.86-.4-15.92-1.39a32.85,32.85,0,0,1-8.32-3.32L6,18.22V13C6-3,34-3,34,13Z"/><path class="cls-2" d="M6,19.22a1,1,0,0,1-1-1V13C5,6.74,9.69,0,20,0h0c10.3,0,15,6.74,15,13v5.22a1,1,0,0,1-.31.72,1,1,0,0,1-.73.28c-0.45,0-11-.42-16.07-1.41a31.62,31.62,0,0,1-7.87-3L6.76,18.85A1,1,0,0,1,6,19.22Zm3.78-6.71a1,1,0,0,1,.5.13,32,32,0,0,0,8,3.21A133.45,133.45,0,0,0,33,17.18V13C33,5.45,26.27,2,20,2h0C13.73,2,7,5.44,7,13v2.38l2-2.49A1,1,0,0,1,9.76,12.51Z"/><path class="cls-5" d="M24.77,20.42a0.5,0.5,0,0,1-.07-1L27.82,19A0.5,0.5,0,1,1,28,20l-3.12.45H24.77Z"/><circle class="cls-2" cx="13.89" cy="23.7" r="1.77"/><path class="cls-5" d="M15.46,20.42H15.39L12.27,20a0.5,0.5,0,1,1,.14-1l3.12,0.45A0.5,0.5,0,0,1,15.46,20.42Z"/></svg>