<svg id="レイヤー_1" data-name="レイヤー 1" xmlns="http://www.w3.org/2000/svg" viewBox="0 0 40 44.91"><defs><style>.cls-1{fill:#d3cbc5;}.cls-2{fill:#201f49;}.cls-3{fill:#fff0de;}.cls-4{fill:#1a1a1a;}.cls-5{fill:gray;}.cls-6{fill:#534741;}</style></defs><title>icon_19</title><ellipse class="cls-1" cx="20" cy="42.91" rx="20" ry="2"/><path class="cls-2" d="M17,32.5h6.76a7.79,7.79,0,0,1,7.79,7.79h0V42.5h-23V41A8.5,8.5,0,0,1,17,32.5Z" transform="translate(0 0)"/><path class="cls-2" d="M31.55,43h-23a0.5,0.5,0,0,1-.5-0.5V41A9,9,0,0,1,17,32h6.76a8.3,8.3,0,0,1,8.29,8.29V42.5A0.5,0.5,0,0,1,31.55,43ZM9.05,42h22V40.29A7.3,7.3,0,0,0,23.76,33H17a8,8,0,0,0-8,8v1Z" transform="translate(0 0)"/><path class="cls-3" d="M20.11,36.68s-4.64-5.18-2.35-5.18h4.68C24.76,31.5,20.11,36.68,20.11,36.68Z" transform="translate(0 0)"/><path class="cls-3" d="M20.11,37.43L19.74,37c-1.09-1.22-3.58-4.19-3-5.44a1,1,0,0,1,1-.58h4.68a1.05,1.05,0,0,1,1.06.58c0.56,1.25-1.92,4.21-3,5.43ZM17.76,32a0.38,0.38,0,0,0-.16,0c-0.11.39,1,2.16,2.51,3.9,1.47-1.71,2.59-3.46,2.48-3.92H17.76Z" transform="translate(0 0)"/><path class="cls-4" d="M12.53,30.86c-5.14,0-9.77-2.43-10.28-5.35-0.77-4.41,4-15.64,4-15.64H16.53Z" transform="translate(0 0)"/><path class="cls-4" d="M12.53,31.86c-5.71,0-10.66-2.71-11.26-6.18C0.45,21,5.13,9.95,5.33,9.48a1,1,0,0,1,.92-0.61H16.53a1,1,0,0,1,1,1.19l-4,21A1,1,0,0,1,12.53,31.86Zm-5.61-21C5.5,14.33,2.68,22.17,3.23,25.34c0.35,2,3.86,4.26,8.47,4.5l3.61-19H6.91Z" transform="translate(0 0)"/><path class="cls-4" d="M27.23,30.86c5.14,0,9.77-2.43,10.28-5.35,0.77-4.41-4-15.64-4-15.64H23.26Z" transform="translate(0 0)"/><path class="cls-4" d="M27.23,31.86a1,1,0,0,1-1-.81l-4-21a1,1,0,0,1,1-1.19H33.53a1,1,0,0,1,.92.61c0.2,0.47,4.85,11.56,4,16.2C37.89,29.14,32.94,31.86,27.23,31.86Zm-2.76-21,3.59,19c4.61-.24,8.12-2.48,8.47-4.5,0.55-3.17-2.25-11-3.66-14.47H24.46Z" transform="translate(0 0)"/><path class="cls-3" d="M7.5,24.5v-14h25v14C32.5,34.5,7.5,34.5,7.5,24.5Z" transform="translate(0 0)"/><path class="cls-3" d="M20,33.5a20.18,20.18,0,0,1-9.3-2.05C7.67,29.83,6,27.36,6,24.5v-14A1.5,1.5,0,0,1,7.5,9h25A1.5,1.5,0,0,1,34,10.5v14C34,30.68,26.74,33.5,20,33.5ZM9,12V24.5c0,3.94,5.53,6,11,6s11-2.06,11-6V12H9Z" transform="translate(0 0)"/><circle class="cls-4" cx="26.34" cy="23.7" r="1.77"/><ellipse class="cls-5" cx="20.11" cy="29.09" rx="1.97" ry="0.79"/><path class="cls-4" d="M34,13v4.22L13.76,13.51,6,17.22V13C6-3,34-3,34,13Z" transform="translate(0 0)"/><path class="cls-4" d="M34,18.22l-0.18,0L13.9,14.55,6.41,18.12A1,1,0,0,1,5,17.22V13C5,6.74,9.69,0,20,0h0c10.3,0,15,6.74,15,13v4.22A1,1,0,0,1,34,18.22ZM13.76,12.51l0.18,0L33,16V13C33,5.45,26.27,2,20,2h0C13.73,2,7,5.44,7,13v2.63l6.35-3A1,1,0,0,1,13.76,12.51Z" transform="translate(0 0)"/><path class="cls-6" d="M27.89,20H27.8l-3.12-.55a0.5,0.5,0,0,1,.17-1L28,19A0.5,0.5,0,0,1,27.89,20Z" transform="translate(0 0)"/><circle class="cls-4" cx="13.89" cy="23.7" r="1.77"/><path class="cls-6" d="M12.34,20a0.5,0.5,0,0,1-.09-1l3.12-.55a0.5,0.5,0,0,1,.17,1L12.43,20H12.34Z" transform="translate(0 0)"/></svg>