<svg id="レイヤー_1" data-name="レイヤー 1" xmlns="http://www.w3.org/2000/svg" viewBox="0 0 40 44.91"><defs><style>.cls-1{fill:#d3cbc5;}.cls-2{fill:#201f49;}.cls-3{fill:#fff0de;}.cls-4{fill:#1a1a1a;}.cls-5{fill:gray;}.cls-6{fill:#534741;}.cls-7{fill:#736357;}</style></defs><title>icon_20</title><ellipse class="cls-1" cx="20" cy="42.91" rx="20" ry="2"/><path class="cls-2" d="M17,32.5h6.76a7.79,7.79,0,0,1,7.79,7.79h0V42.5h-23V41A8.5,8.5,0,0,1,17,32.5Z" transform="translate(0 0)"/><path class="cls-2" d="M31.55,43h-23A0.5,0.5,0,0,1,8,42.5V41A9,9,0,0,1,17,32h6.76A8.3,8.3,0,0,1,32,40.29V42.5A0.5,0.5,0,0,1,31.55,43ZM9,42H31V40.29A7.3,7.3,0,0,0,23.76,33H17a8,8,0,0,0-8,8v1Z" transform="translate(0 0)"/><path class="cls-3" d="M20.11,36.68s-4.64-5.18-2.35-5.18h4.68C24.76,31.5,20.11,36.68,20.11,36.68Z" transform="translate(0 0)"/><path class="cls-3" d="M20.11,37.43L19.74,37c-1.09-1.22-3.58-4.19-3-5.44a1,1,0,0,1,1-.58h4.68a1,1,0,0,1,1.06.58c0.56,1.25-1.92,4.21-3,5.43ZM17.76,32a0.41,0.41,0,0,0-.16,0c-0.11.39,1,2.16,2.51,3.9,1.47-1.71,2.59-3.46,2.48-3.91H17.76Z" transform="translate(0 0)"/><path class="cls-3" d="M7.5,26.5v-16h25v16c0,5-6.14,5.46-12.34,5.5S7.5,31.54,7.5,26.5Z" transform="translate(0 0)"/><path class="cls-3" d="M19.53,33.5C14.08,33.5,10,33,7.67,30.7A5.69,5.69,0,0,1,6,26.5v-16A1.5,1.5,0,0,1,7.5,9h25A1.5,1.5,0,0,1,34,10.5v16c0,6.9-9,7-13.83,7H19.53ZM9,12V26.5a2.73,2.73,0,0,0,.79,2.07c1.76,1.75,6.22,2,10.36,1.93,7.91-.05,10.85-1.14,10.85-4V12H9Z" transform="translate(0 0)"/><circle class="cls-4" cx="26.34" cy="23.7" r="1.77"/><ellipse class="cls-5" cx="20.11" cy="29.09" rx="1.97" ry="0.79"/><path class="cls-4" d="M34,13v4.22l-5.24-4.71a56.65,56.65,0,0,1-10.34,3.36A99.71,99.71,0,0,1,6,17.22V13C6-3,34-3,34,13Z" transform="translate(0 0)"/><path class="cls-4" d="M34,18.22A1,1,0,0,1,33.33,18l-4.76-4.28a56.33,56.33,0,0,1-10,3.17A99.36,99.36,0,0,1,6,18.22a1,1,0,0,1-.73-0.28A1,1,0,0,1,5,17.22V13C5,6.74,9.69,0,20,0h0c10.3,0,15,6.74,15,13v4.22A1,1,0,0,1,34,18.22ZM20,2C13.73,2,7,5.44,7,13v3.16a92.22,92.22,0,0,0,11.24-1.27,55.91,55.91,0,0,0,10.13-3.3,1,1,0,0,1,1.08.17L33,15V13C33,5.45,26.27,2,20,2h0Z" transform="translate(0 0)"/><path class="cls-6" d="M27.89,20H24.77a0.5,0.5,0,0,1,0-1h3.12A0.5,0.5,0,0,1,27.89,20Z" transform="translate(0 0)"/><circle class="cls-4" cx="13.89" cy="23.7" r="1.77"/><path class="cls-6" d="M15.46,20H12.34a0.5,0.5,0,0,1,0-1h3.12A0.5,0.5,0,1,1,15.46,20Z" transform="translate(0 0)"/><path class="cls-7" d="M16.49,27.5h-5.2a3,3,0,0,1-2.77-3.21V23.43a0.5,0.5,0,0,1,1,0v0.86a2,2,0,0,0,1.77,2.21h5.2a2,2,0,0,0,1.77-2.21V23.43a0.5,0.5,0,0,1,1,0v0.86A3,3,0,0,1,16.49,27.5Z" transform="translate(0 0)"/><path class="cls-7" d="M28.69,27.5h-5.2a3,3,0,0,1-2.77-3.21V23.43a0.5,0.5,0,0,1,1,0v0.86a2,2,0,0,0,1.77,2.21h5.2a2,2,0,0,0,1.77-2.21V23.43a0.5,0.5,0,0,1,1,0v0.86A3,3,0,0,1,28.69,27.5Z" transform="translate(0 0)"/><path class="cls-7" d="M16.49,27.5h-5.2a3,3,0,0,1-2.77-3.21V23.43a0.5,0.5,0,0,1,1,0v0.86a2,2,0,0,0,1.77,2.21h5.2a2,2,0,0,0,1.77-2.21V23.43a0.5,0.5,0,0,1,1,0v0.86A3,3,0,0,1,16.49,27.5Z" transform="translate(0 0)"/><path class="cls-7" d="M28.69,27.5h-5.2a3,3,0,0,1-2.77-3.21V23.43a0.5,0.5,0,0,1,1,0v0.86a2,2,0,0,0,1.77,2.21h5.2a2,2,0,0,0,1.77-2.21V23.43a0.5,0.5,0,0,1,1,0v0.86A3,3,0,0,1,28.69,27.5Z" transform="translate(0 0)"/><path class="cls-7" d="M20.95,23.93H19a0.5,0.5,0,0,1,0-1h1.92A0.5,0.5,0,0,1,20.95,23.93Z" transform="translate(0 0)"/><path class="cls-7" d="M9,23.93H9l-3.16-.47a0.5,0.5,0,1,1,.15-1L9.1,22.94A0.5,0.5,0,0,1,9,23.93Z" transform="translate(0 0)"/><path class="cls-7" d="M31,23.93a0.5,0.5,0,0,1-.07-1L34,22.47a0.5,0.5,0,1,1,.15,1L31,23.93H31Z" transform="translate(0 0)"/></svg>