<svg id="レイヤー_1" data-name="レイヤー 1" xmlns="http://www.w3.org/2000/svg" viewBox="0 0 40 44.91"><defs><style>.cls-1{fill:#d3cbc5;}.cls-2{fill:#1a1a1a;}.cls-3{fill:#fff0de;}.cls-4{fill:#fff;}.cls-5{fill:gray;}.cls-6{fill:#534741;}.cls-7{fill:#333;}</style></defs><title>icon_8</title><ellipse class="cls-1" cx="20" cy="42.91" rx="20" ry="2"/><path class="cls-2" d="M17,32.5h6.76a7.79,7.79,0,0,1,7.79,7.79h0V42.5h-23V41A8.5,8.5,0,0,1,17,32.5Z" transform="translate(0 0)"/><path class="cls-2" d="M31.55,43h-23A0.5,0.5,0,0,1,8,42.5V41A9,9,0,0,1,17,32h6.76A8.3,8.3,0,0,1,32,40.29V42.5A0.5,0.5,0,0,1,31.55,43ZM9,42H31V40.29A7.3,7.3,0,0,0,23.76,33H17a8,8,0,0,0-8,8v1Z" transform="translate(0 0)"/><path class="cls-3" d="M20.11,36.68s-4.64-5.18-2.35-5.18h4.68C24.76,31.5,20.11,36.68,20.11,36.68Z" transform="translate(0 0)"/><path class="cls-4" d="M20.11,37.43L19.74,37c-1.09-1.22-3.58-4.19-3-5.44a1,1,0,0,1,1-.58h4.68a1,1,0,0,1,1.06.58c0.56,1.25-1.92,4.21-3,5.43ZM17.76,32a0.39,0.39,0,0,0-.16,0c-0.11.39,1,2.16,2.51,3.9,1.47-1.71,2.59-3.46,2.48-3.91H17.76Z" transform="translate(0 0)"/><path class="cls-3" d="M7.5,24.5v-14h25v14C32.5,34.5,7.5,34.5,7.5,24.5Z" transform="translate(0 0)"/><path class="cls-3" d="M20,33.5a20.18,20.18,0,0,1-9.3-2.05C7.67,29.83,6,27.36,6,24.5v-14A1.5,1.5,0,0,1,7.5,9h25A1.5,1.5,0,0,1,34,10.5v14C34,30.68,26.74,33.5,20,33.5ZM9,12V24.5c0,3.94,5.53,6,11,6s11-2.06,11-6V12H9Z" transform="translate(0 0)"/><ellipse class="cls-5" cx="20.11" cy="29.09" rx="1.97" ry="0.79"/><path class="cls-2" d="M34,13v4.22l-7.24-3.71L6,17.22V13C6-3,34-3,34,13Z" transform="translate(0 0)"/><path class="cls-2" d="M6,18.22a1,1,0,0,1-1-1V13C5,6.74,9.69,0,20,0h0c10.3,0,15,6.74,15,13v4.22a1,1,0,0,1-1.46.89L26.6,14.55,6.16,18.2ZM20,2C13.73,2,7,5.44,7,13v3l19.6-3.5a1,1,0,0,1,.63.09l5.78,3V13C33,5.45,26.27,2,20,2h0Z" transform="translate(0 0)"/><path class="cls-6" d="M27.89,20H27.8l-3.12-.55a0.5,0.5,0,0,1,.17-1L28,19A0.5,0.5,0,0,1,27.89,20Z" transform="translate(0 0)"/><path class="cls-6" d="M12.34,20a0.5,0.5,0,0,1-.09-1l3.12-.55a0.5,0.5,0,1,1,.17,1L12.43,20H12.34Z" transform="translate(0 0)"/><circle class="cls-2" cx="26.34" cy="23.7" r="1.77"/><circle class="cls-2" cx="13.89" cy="23.7" r="1.77"/><path class="cls-7" d="M21.34,24.62H18.76a0.5,0.5,0,0,1,0-1h2.59A0.5,0.5,0,0,1,21.34,24.62Z" transform="translate(0 0)"/><path class="cls-7" d="M9,24.62H9l-3.16-.47a0.5,0.5,0,0,1,.15-1L9.1,23.62A0.5,0.5,0,0,1,9,24.62Z" transform="translate(0 0)"/><path class="cls-7" d="M31.08,24.62a0.5,0.5,0,0,1-.08-1l3-.47a0.5,0.5,0,1,1,.15,1l-3,.47H31.08Z" transform="translate(0 0)"/><path class="cls-7" d="M13.89,28.83c-1.84,0-3.69-.27-4.22-0.8-0.81-.81-1.09-3.36-1.14-3.87a0.5,0.5,0,1,1,1-.1,8,8,0,0,0,.86,3.26c0.66,0.66,6.37.66,7,0a8,8,0,0,0,.86-3.26,0.5,0.5,0,1,1,1,.1c0,0.5-.34,3.06-1.14,3.87C17.58,28.56,15.74,28.83,13.89,28.83Z" transform="translate(0 0)"/><path class="cls-7" d="M26.21,28.82c-1,0-3.51-.08-4.22-0.79s-1.09-3.36-1.14-3.87a0.5,0.5,0,1,1,1-.1,8,8,0,0,0,.86,3.26,7.91,7.91,0,0,0,3.51.5,7.91,7.91,0,0,0,3.51-.5,8,8,0,0,0,.86-3.26,0.5,0.5,0,0,1,1,.1c0,0.5-.34,3.06-1.14,3.87S27.24,28.82,26.21,28.82Z" transform="translate(0 0)"/></svg>