<svg id="レイヤー_1" data-name="レイヤー 1" xmlns="http://www.w3.org/2000/svg" viewBox="0 0 40 44.91"><defs><style>.cls-1{fill:#d3cbc5;}.cls-2{fill:#201f49;}.cls-3{fill:#fff0de;}.cls-4{fill:#fff;}.cls-5{fill:#1a1a1a;}.cls-6{fill:gray;}.cls-7{fill:#534741;}.cls-8{fill:#736357;}</style></defs><title>icon_6</title><ellipse class="cls-1" cx="20" cy="42.91" rx="20" ry="2"/><path class="cls-2" d="M17,32.5h6.76a7.79,7.79,0,0,1,7.79,7.79h0V42.5h-23V41A8.5,8.5,0,0,1,17,32.5Z" transform="translate(0 0)"/><path class="cls-2" d="M31.55,43h-23A0.5,0.5,0,0,1,8,42.5V41A9,9,0,0,1,17,32h6.76A8.3,8.3,0,0,1,32,40.29V42.5A0.5,0.5,0,0,1,31.55,43ZM9,42H31V40.29A7.3,7.3,0,0,0,23.76,33H17a8,8,0,0,0-8,8v1Z" transform="translate(0 0)"/><path class="cls-3" d="M20.11,36.68c-4.45,0-6.64-5.18-4.35-5.18h8.68C26.76,31.5,24.57,36.68,20.11,36.68Z" transform="translate(0 0)"/><path class="cls-4" d="M20.11,37.43c-3.62,0-6-3-6-5a1.74,1.74,0,0,1,.42-1.19,1.61,1.61,0,0,1,1.25-.51h8.68a1.63,1.63,0,0,1,1.26.52,1.75,1.75,0,0,1,.42,1.2C26.13,34.44,23.73,37.43,20.11,37.43Zm-4.35-5.18a0.32,0.32,0,0,0-.14,0,1.54,1.54,0,0,0,.24,1.09,4.81,4.81,0,0,0,8.54-.05,1.39,1.39,0,0,0,.2-1,0.39,0.39,0,0,0-.15,0H15.76Z" transform="translate(0 0)"/><path class="cls-5" d="M20.11,34.14s-9.26-1.64-7.65-1.64H27.75C29.37,32.5,20.11,34.14,20.11,34.14Z" transform="translate(0 0)"/><path class="cls-5" d="M20.11,34.65l-0.09,0c-8.31-1.47-8.3-1.57-8.25-2.14A0.56,0.56,0,0,1,12.46,32H27.75a0.57,0.57,0,0,1,.69.49c0,0.56.06,0.68-8.24,2.14ZM16.67,33l3.44,0.63L23.54,33H16.67Z" transform="translate(0 0)"/><path class="cls-3" d="M7.5,26.5v-16h25v16c0,5-6.14,5.46-12.34,5.5S7.5,31.54,7.5,26.5Z" transform="translate(0 0)"/><path class="cls-3" d="M19.51,33.5c-4.77,0-9.42-.39-11.84-2.8A5.7,5.7,0,0,1,6,26.5v-16A1.5,1.5,0,0,1,7.5,9h25A1.5,1.5,0,0,1,34,10.5v16c0,6.9-9,7-13.83,7H19.51ZM9,12V26.5a2.73,2.73,0,0,0,.79,2.07c1.76,1.75,6.24,2,10.36,1.93,7.91-.05,10.85-1.14,10.85-4V12H9Z" transform="translate(0 0)"/><circle class="cls-5" cx="26.34" cy="23.7" r="1.77"/><ellipse class="cls-6" cx="20.11" cy="29.09" rx="1.97" ry="0.79"/><path class="cls-5" d="M34,13v5.22l-5.24-5.71a56.65,56.65,0,0,1-10.34,3.36C13.33,16.9,6,18.22,6,18.22V13C6-3,34-3,34,13Z" transform="translate(0 0)"/><path class="cls-5" d="M34,19.22a1,1,0,0,1-.74-0.32L28.5,13.71a56.26,56.26,0,0,1-9.89,3.15c-5,1-12.38,2.34-12.46,2.35a1,1,0,0,1-1.18-1V13C5,6.74,9.69,0,20,0h0c10.3,0,15,6.74,15,13v5.22a1,1,0,0,1-.64.93A1,1,0,0,1,34,19.22ZM20,2C13.73,2,7,5.44,7,13v4c2.28-.42,7.43-1.36,11.24-2.13a55.9,55.9,0,0,0,10.13-3.3,1,1,0,0,1,1.15.24L33,15.65V13C33,5.45,26.27,2,20,2h0Z" transform="translate(0 0)"/><path class="cls-7" d="M27.89,20H24.77a0.5,0.5,0,0,1,0-1h3.12A0.5,0.5,0,0,1,27.89,20Z" transform="translate(0 0)"/><circle class="cls-5" cx="13.89" cy="23.7" r="1.77"/><path class="cls-7" d="M15.46,20H12.34a0.5,0.5,0,0,1,0-1h3.12A0.5,0.5,0,0,1,15.46,20Z" transform="translate(0 0)"/><path class="cls-8" d="M16.49,27.5h-5.2a3,3,0,0,1-2.77-3.21V23.43a0.5,0.5,0,0,1,1,0v0.86a2,2,0,0,0,1.77,2.21h5.2a2,2,0,0,0,1.77-2.21V23.43a0.5,0.5,0,0,1,1,0v0.86A3,3,0,0,1,16.49,27.5Z" transform="translate(0 0)"/><path class="cls-8" d="M28.69,27.5h-5.2a3,3,0,0,1-2.77-3.21V23.43a0.5,0.5,0,1,1,1,0v0.86a2,2,0,0,0,1.77,2.21h5.2a2,2,0,0,0,1.77-2.21V23.43a0.5,0.5,0,0,1,1,0v0.86A3,3,0,0,1,28.69,27.5Z" transform="translate(0 0)"/><path class="cls-8" d="M20.95,23.93H19a0.5,0.5,0,0,1,0-1h1.92A0.5,0.5,0,0,1,20.95,23.93Z" transform="translate(0 0)"/><path class="cls-8" d="M9,23.93H9l-3.16-.47a0.5,0.5,0,0,1-.42-0.57,0.51,0.51,0,0,1,.57-0.42L9.1,22.94A0.5,0.5,0,0,1,9,23.93Z" transform="translate(0 0)"/><path class="cls-8" d="M31,23.93a0.5,0.5,0,0,1-.07-1L34,22.47a0.5,0.5,0,0,1,.15,1L31,23.93H31Z" transform="translate(0 0)"/></svg>