<svg id="レイヤー_1" data-name="レイヤー 1" xmlns="http://www.w3.org/2000/svg" viewBox="0 0 40 44.91"><defs><style>.cls-1{fill:#d3cbc5;}.cls-2{fill:#8d2028;}.cls-3{fill:#fff0de;}.cls-4{fill:#534741;}.cls-5{fill:#1a1a1a;}.cls-6{fill:gray;}</style></defs><title>icon_7</title><ellipse class="cls-1" cx="20" cy="42.91" rx="20" ry="2"/><path class="cls-2" d="M17,32.5h6.76a7.79,7.79,0,0,1,7.79,7.79h0V42.5h-23V41A8.5,8.5,0,0,1,17,32.5Z" transform="translate(0 0)"/><path class="cls-2" d="M31.55,43h-23a0.5,0.5,0,0,1-.5-0.5V41A9,9,0,0,1,17,32h6.76a8.3,8.3,0,0,1,8.29,8.29V42.5A0.5,0.5,0,0,1,31.55,43ZM9.05,42h22V40.29A7.3,7.3,0,0,0,23.76,33H17a8,8,0,0,0-8,8v1Z" transform="translate(0 0)"/><path class="cls-3" d="M20.11,36.68s-4.64-5.18-2.35-5.18h4.68C24.76,31.5,20.11,36.68,20.11,36.68Z" transform="translate(0 0)"/><path class="cls-3" d="M20.11,37.43L19.74,37c-1.09-1.22-3.58-4.19-3-5.44a1,1,0,0,1,1-.58h4.68a1,1,0,0,1,1.06.58c0.56,1.25-1.92,4.21-3,5.43ZM17.76,32a0.39,0.39,0,0,0-.16,0c-0.11.39,1,2.16,2.51,3.9,1.47-1.71,2.59-3.46,2.48-3.91H17.76Z" transform="translate(0 0)"/><path class="cls-4" d="M12.76,34C7.62,34,4,31.56,3.48,28.64,2.71,24.23,6.48,10,6.48,10H16.76Z" transform="translate(0 0)"/><path class="cls-4" d="M12.76,35c-5.41,0-9.63-2.54-10.27-6.18-0.8-4.57,2.86-18.48,3-19.07a1,1,0,0,1,1-.74H16.76a1,1,0,0,1,1,1.16l-4,24A1,1,0,0,1,12.76,35ZM7.25,11C6.13,15.39,3.9,25.23,4.47,28.47c0.37,2.12,3,4.26,7.45,4.5l3.66-22H7.25Z" transform="translate(0 0)"/><path class="cls-4" d="M14.28,37c-1.77,1.51-5,.9-5.19-0.42-0.35-2,2.36-8.87,2.36-8.87h4.64S16.46,35.14,14.28,37Z" transform="translate(0 0)"/><path class="cls-4" d="M11.68,38.87a5.28,5.28,0,0,1-1.77-.29,2.54,2.54,0,0,1-1.8-1.84c-0.38-2.16,1.94-8.22,2.41-9.41a1,1,0,0,1,.93-0.63h4.64a1,1,0,0,1,1,1c0.07,1.32.27,8-2.16,10.1h0A5,5,0,0,1,11.68,38.87ZM12.13,28.7c-1,2.75-2.25,6.61-2.06,7.7a1.6,1.6,0,0,0,.88.4,3.27,3.27,0,0,0,2.68-.57h0c1.11-.95,1.52-4.69,1.49-7.53h-3Z" transform="translate(0 0)"/><path class="cls-4" d="M24.09,27.7h4.64s2.7,6.88,2.36,8.87c-0.23,1.32-3.43,1.92-5.19.42C23.72,35.14,24.09,27.7,24.09,27.7Z" transform="translate(0 0)"/><path class="cls-4" d="M28.5,38.87a5,5,0,0,1-3.26-1.12C22.82,35.68,23,29,23.09,27.65a1,1,0,0,1,1-1h4.64a1,1,0,0,1,.93.63c0.47,1.19,2.79,7.25,2.41,9.41a2.54,2.54,0,0,1-1.8,1.84A5.28,5.28,0,0,1,28.5,38.87ZM25.06,28.7c0,2.84.37,6.58,1.48,7.53a3.27,3.27,0,0,0,2.68.57,1.47,1.47,0,0,0,.89-0.42c0.19-1.08-1-4.93-2.06-7.68h-3Z" transform="translate(0 0)"/><path class="cls-4" d="M27.46,34c5.14,0,8.77-2.43,9.28-5.35,0.77-4.41-3-18.64-3-18.64H23.49Z" transform="translate(0 0)"/><path class="cls-4" d="M27.46,35a1,1,0,0,1-1-.84l-4-24a1,1,0,0,1,1-1.16H33.76a1,1,0,0,1,1,.75c0.16,0.59,3.8,14.5,3,19.07C37.09,32.45,32.87,35,27.46,35ZM24.67,11L28.3,33c4.42-.24,7.08-2.38,7.45-4.5C36.32,25.23,34.1,15.39,33,11H24.67Z" transform="translate(0 0)"/><path class="cls-3" d="M7.5,24.5v-14h25v14C32.5,34.5,7.5,34.5,7.5,24.5Z" transform="translate(0 0)"/><path class="cls-3" d="M20,33.5a20.18,20.18,0,0,1-9.3-2.05C7.67,29.83,6,27.36,6,24.5v-14A1.5,1.5,0,0,1,7.5,9h25A1.5,1.5,0,0,1,34,10.5v14C34,30.68,26.74,33.5,20,33.5ZM9,12V24.5c0,3.94,5.53,6,11,6s11-2.06,11-6V12H9Z" transform="translate(0 0)"/><circle class="cls-5" cx="26.34" cy="23.7" r="1.77"/><ellipse class="cls-6" cx="20.11" cy="29.09" rx="1.97" ry="0.79"/><path class="cls-4" d="M34,13v5.22A40,40,0,0,1,26.34,16c-1.85-.91-6.53-4.23-6.53-4.23a42.51,42.51,0,0,1-6.14,4.19A33.58,33.58,0,0,1,6,18.22V13C6-3,34-3,34,13Z" transform="translate(0 0)"/><path class="cls-4" d="M34,19.22l-0.19,0a40.41,40.41,0,0,1-7.91-2.32A67,67,0,0,1,19.85,13a38.41,38.41,0,0,1-5.75,3.85,34.21,34.21,0,0,1-8,2.37,1,1,0,0,1-1.16-1V13C5,6.74,9.69,0,20,0h0c10.3,0,15,6.74,15,13v5.22A1,1,0,0,1,34,19.22ZM20,2C13.73,2,7,5.44,7,13v4a29.7,29.7,0,0,0,6.26-2A41.83,41.83,0,0,0,19.18,11a1,1,0,0,1,1.21,0s4.63,3.29,6.39,4.15A32.8,32.8,0,0,0,33,17V13C33,5.45,26.27,2,20,2h0Z" transform="translate(0 0)"/><path class="cls-4" d="M27.89,20.3a0.5,0.5,0,0,1-.2,0A3.88,3.88,0,0,0,26.33,20a3.46,3.46,0,0,0-1.34.25,0.5,0.5,0,0,1-.43-0.9A4.38,4.38,0,0,1,26.33,19a4.84,4.84,0,0,1,1.76.34A0.5,0.5,0,0,1,27.89,20.3Z" transform="translate(0 0)"/><circle class="cls-5" cx="13.89" cy="23.7" r="1.77"/><path class="cls-4" d="M15.46,20.3a0.5,0.5,0,0,1-.19,0A4,4,0,0,0,13.89,20a3.44,3.44,0,0,0-1.33.25,0.5,0.5,0,0,1-.43-0.9A4.36,4.36,0,0,1,13.89,19a5,5,0,0,1,1.76.34A0.5,0.5,0,0,1,15.46,20.3Z" transform="translate(0 0)"/></svg>