<svg id="レイヤー_1" data-name="レイヤー 1" xmlns="http://www.w3.org/2000/svg" viewBox="0 0 40 44.91"><defs><style>.cls-1{fill:#d3cbc5;}.cls-2{fill:#a67c52;}.cls-3{fill:#c4a86e;}.cls-4{fill:#a8432c;}.cls-5{fill:#333;}.cls-6{fill:#fff0de;}.cls-7{fill:#fff;}.cls-8{fill:#1a1a1a;}.cls-9{fill:gray;}.cls-10{fill:#534741;}</style></defs><title>icon_1</title><ellipse class="cls-1" cx="20" cy="42.91" rx="20" ry="2"/><path class="cls-2" d="M31.17,36.47A8.42,8.42,0,0,0,23.76,32H17a8.81,8.81,0,0,0-7.67,4.49,69.48,69.48,0,0,0,10.77.94A68.46,68.46,0,0,0,31.17,36.47Z"/><path class="cls-2" d="M32.14,41V40.29a8.15,8.15,0,0,0,0-.87,68,68,0,0,1-12,1.16A70,70,0,0,1,8.28,39.45,9.13,9.13,0,0,0,8.14,41a71.51,71.51,0,0,0,12,1.13A69.55,69.55,0,0,0,32.14,41Z"/><path class="cls-2" d="M32,38.64a8.06,8.06,0,0,0-.45-1.44,68.6,68.6,0,0,1-11.43,1.05A69.82,69.82,0,0,1,9,37.25a9,9,0,0,0-.51,1.43,70.07,70.07,0,0,0,11.65,1.09A68.23,68.23,0,0,0,32,38.64Z"/><path class="cls-2" d="M8.14,41.8v0.7a0.46,0.46,0,0,0,.41.53h23a0.61,0.61,0,0,0,.59-0.53V41.78a69.56,69.56,0,0,1-12,1.15A71.51,71.51,0,0,1,8.14,41.8Z"/><path class="cls-3" d="M20.09,42.12A68.61,68.61,0,0,1,8.14,41h0v0.8a71.51,71.51,0,0,0,12,1.13,69.56,69.56,0,0,0,12-1.15V41A69.56,69.56,0,0,1,20.09,42.12Z"/><path class="cls-4" d="M32.09,39.42Q32,39,32,38.64a68.23,68.23,0,0,1-11.87,1.14A70.07,70.07,0,0,1,8.44,38.69c-0.07.25-.12,0.51-0.17,0.76a70,70,0,0,0,11.82,1.12A68,68,0,0,0,32.09,39.42Z"/><path class="cls-5" d="M31.52,37.2q-0.16-.38-0.35-0.73a68.46,68.46,0,0,1-11.08,1,69.48,69.48,0,0,1-10.77-.94q-0.2.36-.37,0.73a69.82,69.82,0,0,0,11.14,1A68.6,68.6,0,0,0,31.52,37.2Z"/><path class="cls-6" d="M20.11,35.68s-4.64-5.18-2.35-5.18h4.68C24.76,30.5,20.11,35.68,20.11,35.68Z"/><path class="cls-7" d="M20.11,37.18l-0.74-.83c-2.56-2.85-3.6-4.86-3.11-6a1.53,1.53,0,0,1,1.5-.87h4.68a1.54,1.54,0,0,1,1.51.88c0.5,1.11-.55,3.12-3.1,6ZM18.29,31.5a16.07,16.07,0,0,0,1.82,2.64,15.87,15.87,0,0,0,1.82-2.64H18.29Z"/><path class="cls-6" d="M20.11,35.28s-3.92-4.38-2-4.38h4C24,30.9,20.11,35.28,20.11,35.28Z"/><path class="cls-6" d="M8.5,26.5l-1-16h25l-1,16c0,5-8,5.5-11.45,5.5S8.5,31.51,8.5,26.5Z"/><path class="cls-6" d="M20,33.5c-3.79,0-8.82-.54-11.38-3.1A5.34,5.34,0,0,1,7,26.55l-1-16A1.5,1.5,0,0,1,7.5,9h25A1.5,1.5,0,0,1,34,10.59l-1,16c0,4.35-4.72,6.9-12.94,6.91H20ZM9.1,12L10,26.41s0,0.06,0,.09a2.37,2.37,0,0,0,.74,1.78c1.4,1.4,4.91,2.21,9.31,2.22,2.33,0,10-.3,10-4L30.9,12H9.1Z"/><circle class="cls-8" cx="26.34" cy="23.7" r="1.77"/><ellipse class="cls-9" cx="20.11" cy="29.09" rx="1.97" ry="0.79"/><path class="cls-10" d="M34,13v5.22L9.76,13.51,6,18.22V13C6-3,34-3,34,13Z"/><path class="cls-10" d="M6,19.22a1,1,0,0,1-1-1V13C5,6.74,9.69,0,20,0h0c10.3,0,15,6.74,15,13v5.22a1,1,0,0,1-1.19,1L10.16,14.61l-3.4,4.24A1,1,0,0,1,6,19.22Zm3.78-6.71,0.19,0L33,17V13C33,5.45,26.27,2,20,2h0C13.73,2,7,5.44,7,13v2.38l2-2.49A1,1,0,0,1,9.76,12.51Z"/><circle class="cls-8" cx="13.89" cy="23.7" r="1.77"/><path class="cls-10" d="M15.46,20.42a0.5,0.5,0,0,1-.29-0.09A2.4,2.4,0,0,0,13.89,20a2.88,2.88,0,0,0-1.29.38,0.5,0.5,0,0,1-.52-0.85A3.88,3.88,0,0,1,13.89,19a3.36,3.36,0,0,1,1.86.55A0.5,0.5,0,0,1,15.46,20.42Z"/><path class="cls-10" d="M27.9,20.42a0.5,0.5,0,0,1-.26-0.07A2.88,2.88,0,0,0,26.35,20a2.39,2.39,0,0,0-1.28.36,0.5,0.5,0,0,1-.59-0.81A3.36,3.36,0,0,1,26.35,19a3.88,3.88,0,0,1,1.81.52A0.5,0.5,0,0,1,27.9,20.42Z"/></svg>