<svg id="レイヤー_1" data-name="レイヤー 1" xmlns="http://www.w3.org/2000/svg" viewBox="0 0 40 44.91"><defs><style>.cls-1{fill:#d3cbc5;}.cls-2{fill:#265947;}.cls-3{fill:#fff0de;}.cls-4{fill:#534741;}.cls-5{fill:#8c6239;}.cls-6{fill:#fbb03b;}.cls-7{fill:#1a1a1a;}.cls-8{fill:gray;}.cls-9{fill:#a67c52;}</style></defs><title>icon_5</title><ellipse class="cls-1" cx="20" cy="42.91" rx="20" ry="2"/><path class="cls-2" d="M17,32.5h6.76a7.79,7.79,0,0,1,7.79,7.79h0V42.5h-23V41A8.5,8.5,0,0,1,17,32.5Z" transform="translate(0 0)"/><path class="cls-2" d="M31.55,43h-23A0.5,0.5,0,0,1,8,42.5V41A9,9,0,0,1,17,32h6.76A8.3,8.3,0,0,1,32,40.29V42.5A0.5,0.5,0,0,1,31.55,43ZM9,42H31V40.29A7.3,7.3,0,0,0,23.76,33H17a8,8,0,0,0-8,8v1Z" transform="translate(0 0)"/><path class="cls-3" d="M20.11,36.68s-4.64-5.18-2.35-5.18h4.68C24.76,31.5,20.11,36.68,20.11,36.68Z" transform="translate(0 0)"/><path class="cls-3" d="M20.11,37.43L19.74,37c-1.09-1.22-3.58-4.19-3-5.44a1,1,0,0,1,1-.58h4.68a1,1,0,0,1,1.06.58c0.56,1.25-1.92,4.21-3,5.43ZM17.76,32a0.39,0.39,0,0,0-.16,0c-0.11.39,1,2.16,2.51,3.9,1.47-1.71,2.59-3.46,2.48-3.92H17.76Z" transform="translate(0 0)"/><path class="cls-4" d="M30.17,29.51H9.48s-5.1-2.09-5.81-3.7C2,22.1,6.39,9.85,6.39,9.85H33.6s4.29,12.25,2.58,16C35.35,27.61,30.17,29.51,30.17,29.51Z" transform="translate(0 0)"/><path class="cls-4" d="M30.17,30.51H9.48a1,1,0,0,1-.38-0.07c-1.28-.53-5.53-2.39-6.35-4.22C1,22.26,5,10.8,5.44,9.51a1,1,0,0,1,.94-0.66H33.6a1,1,0,0,1,.94.67c0.45,1.29,4.37,12.75,2.54,16.71-1,2.07-5.63,3.88-6.56,4.22A1,1,0,0,1,30.17,30.51Zm-20.5-2H30c2.26-.86,4.88-2.26,5.27-3.12,1.07-2.32-.81-9.87-2.38-14.55H7.1C5.49,15.53,3.55,23.09,4.58,25.4,4.9,26.13,7.44,27.57,9.68,28.51Z" transform="translate(0 0)"/><line class="cls-5" x1="7.44" y1="9.84" x2="32.21" y2="9.84"/><path class="cls-6" d="M32.21,10.34H7.44a0.5,0.5,0,1,1,0-1H32.21A0.5,0.5,0,1,1,32.21,10.34Z" transform="translate(0 0)"/><path class="cls-3" d="M7.5,24.5v-14h25v14C32.5,34.5,7.5,34.5,7.5,24.5Z" transform="translate(0 0)"/><path class="cls-3" d="M20,33.5a20.18,20.18,0,0,1-9.3-2.05C7.67,29.83,6,27.36,6,24.5v-14A1.5,1.5,0,0,1,7.5,9h25A1.5,1.5,0,0,1,34,10.5v14C34,30.68,26.74,33.5,20,33.5ZM9,12V24.5c0,3.94,5.53,6,11,6s11-2.06,11-6V12H9Z" transform="translate(0 0)"/><circle class="cls-7" cx="26.34" cy="24.7" r="1.77"/><ellipse class="cls-8" cx="20.11" cy="29.09" rx="1.97" ry="0.79"/><path class="cls-4" d="M34,13v4.22H6V13C6-3,34-3,34,13Z" transform="translate(0 0)"/><path class="cls-4" d="M34,18.22H6a1,1,0,0,1-1-1V13C5,6.74,9.69,0,20,0h0c10.3,0,15,6.74,15,13v4.22A1,1,0,0,1,34,18.22Zm-27-2H33V13C33,5.45,26.27,2,20,2h0C13.73,2,7,5.44,7,13v3.22Z" transform="translate(0 0)"/><path class="cls-5" d="M27.89,21H24.77a0.5,0.5,0,0,1,0-1h3.12A0.5,0.5,0,0,1,27.89,21Z" transform="translate(0 0)"/><circle class="cls-7" cx="13.89" cy="24.7" r="1.77"/><path class="cls-5" d="M15.46,21H12.34a0.5,0.5,0,1,1,0-1h3.12A0.5,0.5,0,0,1,15.46,21Z" transform="translate(0 0)"/><path class="cls-9" d="M10.55,18.2V12.13a0.61,0.61,0,0,1,1.22,0V18.2H10.55Z" transform="translate(0 0)"/><path class="cls-9" d="M7.73,18.2V12.13a0.61,0.61,0,0,1,1.22,0V18.2H7.73Z" transform="translate(0 0)"/></svg>