<svg id="レイヤー_1" data-name="レイヤー 1" xmlns="http://www.w3.org/2000/svg" viewBox="0 0 40 44.91"><defs><style>.cls-1{fill:#d3cbc5;}.cls-2{fill:#f2be3b;}.cls-3{fill:#265947;}.cls-4{fill:#fff0de;}.cls-5{fill:#1a1a1a;}.cls-6{fill:gray;}.cls-7{fill:#534741;}</style></defs><title>icon_4</title><ellipse class="cls-1" cx="20" cy="42.91" rx="20" ry="2"/><path class="cls-2" d="M17,32.5h6.76a7.79,7.79,0,0,1,7.79,7.79h0V42.5h-23V41A8.5,8.5,0,0,1,17,32.5Z" transform="translate(0 0)"/><path class="cls-2" d="M31.55,43h-23a0.5,0.5,0,0,1-.5-0.5V41A9,9,0,0,1,17,32h6.76a8.3,8.3,0,0,1,8.29,8.29V42.5A0.5,0.5,0,0,1,31.55,43ZM9.05,42h22V40.29A7.3,7.3,0,0,0,23.76,33H17a8,8,0,0,0-8,8v1Z" transform="translate(0 0)"/><path class="cls-3" d="M23.76,32.5a7.79,7.79,0,0,1,7.79,7.79h0V42.5H22.78Z" transform="translate(0 0)"/><path class="cls-3" d="M31.55,43H22.78a0.5,0.5,0,0,1-.5-0.55l1-10a0.5,0.5,0,0,1,.5-0.45,8.3,8.3,0,0,1,8.29,8.29V42.5A0.5,0.5,0,0,1,31.55,43Zm-8.21-1h7.71V40.29A7.3,7.3,0,0,0,24.21,33Z" transform="translate(0 0)"/><path class="cls-3" d="M17.32,42.5H8.55V40.29h0a7.79,7.79,0,0,1,7.79-7.79Z" transform="translate(0 0)"/><path class="cls-3" d="M17.32,43H8.55a0.5,0.5,0,0,1-.5-0.5V40.29A8.3,8.3,0,0,1,16.34,32a0.5,0.5,0,0,1,.5.45l1,10A0.5,0.5,0,0,1,17.32,43ZM9.05,42h7.71l-0.88-9a7.3,7.3,0,0,0-6.84,7.28V42Z" transform="translate(0 0)"/><path class="cls-4" d="M20.11,35.68c-1.42,0-4.64-4.18-2.35-4.18h4.68C24.76,31.5,21.53,35.68,20.11,35.68Z" transform="translate(0 0)"/><path class="cls-4" d="M20.11,36.18h0c-1.33,0-3.65-2.56-3.65-4A1.14,1.14,0,0,1,17.76,31h4.68a1.23,1.23,0,0,1,1.17.56,2,2,0,0,1-.31,2C22.66,34.65,21.19,36.18,20.11,36.18ZM17.76,32c-0.3,0-.3.06-0.3,0.15,0,1,1.93,3,2.65,3A4.58,4.58,0,0,0,22.43,33a1.46,1.46,0,0,0,.31-1,0.45,0.45,0,0,0-.3-0.06H17.76Z" transform="translate(0 0)"/><path class="cls-4" d="M7.5,24.5v-14h25v14C32.5,34.5,7.5,34.5,7.5,24.5Z" transform="translate(0 0)"/><path class="cls-4" d="M20,33.5a20.18,20.18,0,0,1-9.3-2.05C7.67,29.83,6,27.36,6,24.5v-14A1.5,1.5,0,0,1,7.5,9h25A1.5,1.5,0,0,1,34,10.5v14C34,30.68,26.74,33.5,20,33.5ZM9,12V24.5c0,3.94,5.53,6,11,6s11-2.06,11-6V12H9Z" transform="translate(0 0)"/><circle class="cls-5" cx="26.34" cy="23.7" r="1.77"/><ellipse class="cls-6" cx="20.11" cy="29.09" rx="1.97" ry="0.79"/><path class="cls-7" d="M34,13v4.22s-7.22.14-11.92-1c-5-1.19-12.32-4.72-12.32-4.72a40.71,40.71,0,0,1-2.21,3.86A10.73,10.73,0,0,1,6,17.22S6,14.06,6,13C6-3,34-3,34,13Z" transform="translate(0 0)"/><path class="cls-7" d="M33.17,18.23a55.89,55.89,0,0,1-11.33-1,74.69,74.69,0,0,1-11.64-4.38,33.65,33.65,0,0,1-1.84,3.12,11.7,11.7,0,0,1-1.74,2A1,1,0,0,1,5,17.22V13C5,6.74,9.68,0,20,0h0C30.31,0,35,6.74,35,13v4.22a1,1,0,0,1-1,1H33.17Zm0.83-1h0ZM9.76,10.51a1,1,0,0,1,.43.1c0.07,0,7.33,3.5,12.12,4.65a54,54,0,0,0,10.69,1V13C33,5.44,26.26,2,20,2h0C13.73,2,7,5.44,7,13v1.42c0.85-1.32,1.88-3.34,1.89-3.37A1,1,0,0,1,9.76,10.51Z" transform="translate(0 0)"/><path class="cls-7" d="M27.89,20H24.77a0.5,0.5,0,0,1,0-1h3.12A0.5,0.5,0,0,1,27.89,20Z" transform="translate(0 0)"/><circle class="cls-5" cx="13.89" cy="23.7" r="1.77"/><path class="cls-7" d="M15.46,20H12.34a0.5,0.5,0,1,1,0-1h3.12A0.5,0.5,0,1,1,15.46,20Z" transform="translate(0 0)"/></svg>