<svg id="レイヤー_1" data-name="レイヤー 1" xmlns="http://www.w3.org/2000/svg" viewBox="0 0 40 43.91"><defs><style>.cls-1{fill:#d3cbc5;}.cls-2{fill:#fff;}.cls-3{fill:#1a1a1a;}.cls-4{fill:#fff0de;}.cls-5{fill:gray;}</style></defs><title>icon_12</title><ellipse class="cls-1" cx="20" cy="41.91" rx="20" ry="2"/><path class="cls-2" d="M17,32h6.76a7.79,7.79,0,0,1,7.79,7.79h0V42h-23V40.5A8.5,8.5,0,0,1,17,32Z" transform="translate(0 -0.5)"/><path class="cls-2" d="M31.55,42.5h-23a0.5,0.5,0,0,1-.5-0.5V40.5a9,9,0,0,1,8.95-9h6.76a8.3,8.3,0,0,1,8.29,8.29V42A0.5,0.5,0,0,1,31.55,42.5Zm-22.5-1h22V39.79a7.3,7.3,0,0,0-7.29-7.29H17a8,8,0,0,0-8,8v1Z" transform="translate(0 -0.5)"/><path class="cls-3" d="M23.76,32a7.79,7.79,0,0,1,7.79,7.79h0V42H21.78Z" transform="translate(0 -0.5)"/><path class="cls-3" d="M31.55,42.5H21.78a0.5,0.5,0,0,1-.49-0.6l2-10a0.5,0.5,0,0,1,.49-0.4,8.3,8.3,0,0,1,8.29,8.29V42A0.5,0.5,0,0,1,31.55,42.5Zm-9.16-1h8.66V39.79a7.3,7.3,0,0,0-6.88-7.28Z" transform="translate(0 -0.5)"/><path class="cls-3" d="M18.32,42H8.55V39.79h0A7.79,7.79,0,0,1,16.34,32Z" transform="translate(0 -0.5)"/><path class="cls-3" d="M18.32,42.5H8.55a0.5,0.5,0,0,1-.5-0.5V39.79a8.3,8.3,0,0,1,8.29-8.29,0.5,0.5,0,0,1,.49.4l2,10A0.5,0.5,0,0,1,18.32,42.5Zm-9.27-1h8.66l-1.78-9a7.3,7.3,0,0,0-6.88,7.28V41.5Z" transform="translate(0 -0.5)"/><path class="cls-4" d="M22.77,32.55a3,3,0,0,1-5.32,0C17,31.68,16.93,31,17.76,31h4.68C23.28,31,23.21,31.68,22.77,32.55Z" transform="translate(0 -0.5)"/><path class="cls-4" d="M20.11,34.67A3.46,3.46,0,0,1,17,32.78,2,2,0,0,1,16.77,31a1.07,1.07,0,0,1,1-.47h4.68a1.08,1.08,0,0,1,1,.47,2,2,0,0,1-.22,1.8h0a3.45,3.45,0,0,1-3.1,1.9h0ZM17.6,31.52a2.58,2.58,0,0,0,.29.81,2.43,2.43,0,0,0,2.21,1.34h0a2.43,2.43,0,0,0,2.21-1.35,1.7,1.7,0,0,0,.26-0.81H17.76A0.47,0.47,0,0,0,17.6,31.52Z" transform="translate(0 -0.5)"/><path class="cls-4" d="M7.5,24V10h25V24c0,5-7.93,7.5-12.5,7.5C15.66,31.5,7.5,29,7.5,24Z" transform="translate(0 -0.5)"/><path class="cls-4" d="M20,33c-4.73,0-14-2.72-14-9V10A1.5,1.5,0,0,1,7.5,8.5h25A1.5,1.5,0,0,1,34,10V24C34,30.36,24.88,33,20,33ZM9,11.5V24c0,3.72,7.12,6,11,6,4.38,0,11-2.39,11-6V11.5H9Z" transform="translate(0 -0.5)"/><circle class="cls-3" cx="26.34" cy="22.7" r="1.77"/><ellipse class="cls-5" cx="20.11" cy="28.09" rx="1.97" ry="0.79"/><path class="cls-3" d="M34,13.5v4.22s-5.66.26-9.23,0c-6.24-.46-15-3.71-15-3.71L6,17.72V13.5C6-2.5,34-2.5,34,13.5Z" transform="translate(0 -0.5)"/><path class="cls-3" d="M28.77,18.84c-1.39,0-2.84,0-4.07-.12-5.44-.4-12.57-2.81-14.68-3.55L6.68,18.43A1,1,0,0,1,5,17.72V13.5C5,7.24,9.69.5,20,.5h0c10.3,0,15,6.74,15,13v4.22a1,1,0,0,1-1,1C33.89,18.73,31.45,18.84,28.77,18.84ZM34,17.72h0ZM9.76,13a1,1,0,0,1,.35.06c0.09,0,8.71,3.21,14.74,3.65,2.61,0.19,6.4.1,8.16,0V13.5c0-7.55-6.73-11-13-11h0c-6.27,0-13,3.44-13,11v1.84l2.08-2A1,1,0,0,1,9.76,13Z" transform="translate(0 -0.5)"/><path class="cls-3" d="M24.77,20.17a0.75,0.75,0,0,1-.11-1.49l3.12-.45A0.75,0.75,0,0,1,28,19.71l-3.12.45H24.77Z" transform="translate(0 -0.5)"/><circle class="cls-3" cx="13.89" cy="22.7" r="1.77"/><path class="cls-3" d="M15.46,20.17H15.35l-3.12-.45a0.75,0.75,0,1,1,.21-1.48l3.12,0.45A0.75,0.75,0,0,1,15.46,20.17Z" transform="translate(0 -0.5)"/></svg>