<svg id="レイヤー_1" data-name="レイヤー 1" xmlns="http://www.w3.org/2000/svg" viewBox="0 0 40 43.91"><defs><style>.cls-1{fill:#d3cbc5;}.cls-2{fill:gray;}.cls-3{fill:#fff0de;}.cls-4{fill:#1a1a1a;}</style></defs><title>icon_2</title><ellipse class="cls-1" cx="20" cy="41.91" rx="20" ry="2"/><path class="cls-2" d="M17,32h6.76a7.79,7.79,0,0,1,7.79,7.79h0V42h-23V40.5A8.5,8.5,0,0,1,17,32Z" transform="translate(0 -0.5)"/><path class="cls-2" d="M31.55,42.5h-23A0.5,0.5,0,0,1,8,42V40.5a9,9,0,0,1,8.95-9h6.76A8.3,8.3,0,0,1,32,39.79V42A0.5,0.5,0,0,1,31.55,42.5ZM9,41.5H31V39.79a7.3,7.3,0,0,0-7.29-7.29H17a8,8,0,0,0-8,8v1Z" transform="translate(0 -0.5)"/><path class="cls-3" d="M20.11,36.18S15.47,31,17.76,31h4.68C24.76,31,20.11,36.18,20.11,36.18Z" transform="translate(0 -0.5)"/><path class="cls-3" d="M20.11,36.93l-0.37-.42c-1.09-1.22-3.58-4.19-3-5.44a1,1,0,0,1,1-.58h4.68a1,1,0,0,1,1.06.58c0.56,1.25-1.92,4.21-3,5.43ZM17.76,31.5a0.39,0.39,0,0,0-.16,0c-0.11.39,1,2.16,2.51,3.9,1.47-1.71,2.59-3.46,2.48-3.92H17.76Z" transform="translate(0 -0.5)"/><path class="cls-4" d="M27.2,37.12a26.47,26.47,0,0,1-7.09,1.18A27.34,27.34,0,0,1,13,37.12c-1.1-.41-3.55-1.88-3.55-3.06,0-3.06,1.71-4,2.37-4H28.38c0.65,0,2.36,1,2.36,4C30.75,35.13,28.29,36.71,27.2,37.12Z" transform="translate(0 -0.5)"/><path class="cls-4" d="M18,40.65a0.5,0.5,0,0,1-.5-0.5V36.46a0.5,0.5,0,0,1,1,0v3.69A0.5,0.5,0,0,1,18,40.65Z" transform="translate(0 -0.5)"/><path class="cls-4" d="M22.24,41.73a0.5,0.5,0,0,1-.5-0.5V37.55a0.5,0.5,0,0,1,1,0v3.69A0.5,0.5,0,0,1,22.24,41.73Z" transform="translate(0 -0.5)"/><path class="cls-3" d="M7.5,24V10h25V24c0,5-7.93,7.5-12.5,7.5C15.66,31.5,7.5,29,7.5,24Z" transform="translate(0 -0.5)"/><path class="cls-3" d="M20,33c-4.73,0-14-2.72-14-9V10A1.5,1.5,0,0,1,7.5,8.5h25A1.5,1.5,0,0,1,34,10V24C34,30.36,24.88,33,20,33ZM9,11.5V24c0,3.72,7.12,6,11,6,4.38,0,11-2.39,11-6V11.5H9Z" transform="translate(0 -0.5)"/><circle class="cls-4" cx="26.34" cy="22.7" r="1.77"/><ellipse class="cls-2" cx="20.11" cy="28.09" rx="1.97" ry="0.79"/><path class="cls-4" d="M34,13.5v4.22s-5.66.26-9.23,0c-6.24-.46-15-3.71-15-3.71L6,17.72V13.5C6-2.5,34-2.5,34,13.5Z" transform="translate(0 -0.5)"/><path class="cls-4" d="M28.77,18.84c-1.39,0-2.84,0-4.07-.12-5.44-.4-12.58-2.81-14.68-3.55L6.68,18.43A1,1,0,0,1,5,17.72V13.5C5,7.24,9.69.5,20,.5h0c10.3,0,15,6.74,15,13v4.22a1,1,0,0,1-1,1C33.89,18.73,31.45,18.84,28.77,18.84ZM34,17.72h0ZM9.76,13a1,1,0,0,1,.35.06c0.09,0,8.71,3.21,14.74,3.65,2.61,0.19,6.4.1,8.16,0V13.5c0-7.55-6.73-11-13-11h0c-6.27,0-13,3.44-13,11v1.84l2.08-2A1,1,0,0,1,9.76,13Z" transform="translate(0 -0.5)"/><path class="cls-4" d="M24.77,19.92a0.5,0.5,0,0,1-.07-1l3.12-.45a0.49,0.49,0,0,1,.57.42,0.5,0.5,0,0,1-.42.57l-3.12.45H24.77Z" transform="translate(0 -0.5)"/><circle class="cls-4" cx="13.89" cy="22.7" r="1.77"/><path class="cls-4" d="M15.46,19.92H15.39l-3.12-.45a0.5,0.5,0,0,1,.14-1l3.12,0.45A0.5,0.5,0,0,1,15.46,19.92Z" transform="translate(0 -0.5)"/><path class="cls-4" d="M26.93,39.74a0.5,0.5,0,0,1-.5-0.5V37.55a0.5,0.5,0,0,1,1,0v1.69A0.5,0.5,0,0,1,26.93,39.74Z" transform="translate(0 -0.5)"/><path class="cls-4" d="M28.16,39.32a0.5,0.5,0,0,1-.5-0.5V37.13a0.5,0.5,0,0,1,1,0v1.69A0.5,0.5,0,0,1,28.16,39.32Z" transform="translate(0 -0.5)"/><path class="cls-4" d="M29.41,38.57a0.5,0.5,0,0,1-.5-0.5V36.38a0.5,0.5,0,0,1,1,0v1.69A0.5,0.5,0,0,1,29.41,38.57Z" transform="translate(0 -0.5)"/><path class="cls-4" d="M30.62,38a0.5,0.5,0,0,1-.5-0.5V35.86a0.5,0.5,0,0,1,1,0v1.69A0.5,0.5,0,0,1,30.62,38Z" transform="translate(0 -0.5)"/><polygon class="cls-4" points="30.85 35.74 27.01 37.57 26.7 35.51 26.96 33.12 30.14 30.9 31.22 31.35 31.86 33.57 30.85 35.74"/><path class="cls-4" d="M27,38.57a0.5,0.5,0,0,1-.49-0.43l-0.3-2.06a0.49,0.49,0,0,1,0-.13l0.25-2.39a0.5,0.5,0,0,1,.21-0.36L29.85,31a0.5,0.5,0,0,1,.48-0.05l1.08,0.45a0.5,0.5,0,0,1,.29.32l0.64,2.22a0.5,0.5,0,0,1,0,.35l-1,2.17a0.5,0.5,0,0,1-.24.24l-3.84,1.83A0.5,0.5,0,0,1,27,38.57ZM27.21,36l0.2,1.33,3.07-1.46L31.32,34,30.8,32.22,30.2,32,27.43,33.9Zm3.64,0.24h0Z" transform="translate(0 -0.5)"/></svg>