<svg id="レイヤー_1" data-name="レイヤー 1" xmlns="http://www.w3.org/2000/svg" viewBox="0 0 40 44.91"><defs><style>.cls-1{fill:#d3cbc5;}.cls-2{fill:#201f49;}.cls-3{fill:#fff0de;}.cls-4{fill:#754c24;}.cls-5{fill:#1a1a1a;}.cls-6{fill:gray;}.cls-7{fill:#534741;}</style></defs><title>icon_9</title><ellipse class="cls-1" cx="20" cy="42.91" rx="20" ry="2"/><path class="cls-2" d="M17,32.5h6.76a7.79,7.79,0,0,1,7.79,7.79h0V42.5h-23V41A8.5,8.5,0,0,1,17,32.5Z" transform="translate(0 0)"/><path class="cls-2" d="M31.55,43h-23A0.5,0.5,0,0,1,8,42.5V41A9,9,0,0,1,17,32h6.76A8.3,8.3,0,0,1,32,40.29V42.5A0.5,0.5,0,0,1,31.55,43ZM9,42H31V40.29A7.3,7.3,0,0,0,23.76,33H17a8,8,0,0,0-8,8v1Z" transform="translate(0 0)"/><path class="cls-3" d="M20.11,36.68s-4.64-5.18-2.35-5.18h4.68C24.76,31.5,20.11,36.68,20.11,36.68Z" transform="translate(0 0)"/><path class="cls-3" d="M20.11,37.43L19.74,37c-1.09-1.22-3.58-4.19-3-5.44a1,1,0,0,1,1-.58h4.68a1.05,1.05,0,0,1,1.06.58c0.56,1.25-1.92,4.21-3,5.43ZM17.76,32a0.38,0.38,0,0,0-.16,0c-0.11.39,1,2.16,2.51,3.9,1.47-1.71,2.59-3.46,2.48-3.91H17.76Z" transform="translate(0 0)"/><path class="cls-4" d="M12.53,33.86c-5.14,0-8.77-2.43-9.28-5.35-0.77-4.41,3-18.64,3-18.64H16.53Z" transform="translate(0 0)"/><path class="cls-4" d="M12.53,34.86c-5.41,0-9.63-2.54-10.27-6.18-0.79-4.57,2.86-18.48,3-19.07a1,1,0,0,1,1-.74H16.53a1,1,0,0,1,1,1.16l-4,24A1,1,0,0,1,12.53,34.86ZM7,10.87C5.9,15.26,3.67,25.1,4.23,28.34c0.37,2.12,3,4.26,7.45,4.5l3.66-22H7Z" transform="translate(0 0)"/><path class="cls-4" d="M27.23,33.86c5.14,0,8.77-2.43,9.28-5.35,0.77-4.41-3-18.64-3-18.64H23.26Z" transform="translate(0 0)"/><path class="cls-4" d="M27.23,34.86a1,1,0,0,1-1-.84l-4-24a1,1,0,0,1,1-1.16H33.53a1,1,0,0,1,1,.75c0.16,0.59,3.8,14.5,3,19.07C36.86,32.32,32.63,34.86,27.23,34.86Zm-2.79-24,3.64,22c4.42-.24,7.08-2.38,7.45-4.5,0.57-3.24-1.65-13.08-2.77-17.47H24.43Z" transform="translate(0 0)"/><path class="cls-3" d="M7.5,25.5v-15h25v15C32.5,35.5,7.5,35.5,7.5,25.5Z" transform="translate(0 0)"/><path class="cls-3" d="M20,34.5a20.18,20.18,0,0,1-9.3-2.05C7.67,30.83,6,28.36,6,25.5v-15A1.5,1.5,0,0,1,7.5,9h25A1.5,1.5,0,0,1,34,10.5v15C34,31.68,26.74,34.5,20,34.5ZM9,12V25.5c0,3.94,5.53,6,11,6s11-2.06,11-6V12H9Z" transform="translate(0 0)"/><ellipse class="cls-5" cx="26.34" cy="24.7" rx="1.77" ry="1.5"/><ellipse class="cls-6" cx="20.11" cy="30.09" rx="1.97" ry="0.79"/><path class="cls-4" d="M34,13v4.22L13.76,13.51,6,17.22V13C6-3,34-3,34,13Z" transform="translate(0 0)"/><path class="cls-4" d="M34,18.22l-0.18,0L13.9,14.55,6.41,18.12A1,1,0,0,1,5,17.22V13C5,6.74,9.69,0,20,0h0c10.3,0,15,6.74,15,13v4.22A1,1,0,0,1,34,18.22ZM13.76,12.51l0.18,0L33,16V13C33,5.45,26.27,2,20,2h0C13.73,2,7,5.44,7,13v2.63l6.35-3A1,1,0,0,1,13.76,12.51Z" transform="translate(0 0)"/><path class="cls-7" d="M24.77,21.42a0.5,0.5,0,0,1-.07-1L27.82,20A0.5,0.5,0,1,1,28,21l-3.12.45H24.77Z" transform="translate(0 0)"/><ellipse class="cls-5" cx="13.89" cy="24.7" rx="1.77" ry="1.5"/><path class="cls-7" d="M15.46,21.42H15.39L12.27,21a0.5,0.5,0,1,1,.14-1l3.12,0.45A0.5,0.5,0,0,1,15.46,21.42Z" transform="translate(0 0)"/></svg>