<svg id="レイヤー_1" data-name="レイヤー 1" xmlns="http://www.w3.org/2000/svg" viewBox="0 0 40 44.91"><defs><style>.cls-1{fill:#d3cbc5;}.cls-2{fill:#2e3192;}.cls-3{fill:#fff0de;}.cls-4{fill:#333;}.cls-5{fill:#1a1a1a;}.cls-6{fill:gray;}.cls-7{fill:#736357;}</style></defs><title>icon_11</title><ellipse class="cls-1" cx="20" cy="42.91" rx="20" ry="2"/><path class="cls-2" d="M17,32.5h6.76a7.79,7.79,0,0,1,7.79,7.79h0V42.5h-23V41A8.5,8.5,0,0,1,17,32.5Z" transform="translate(0 0)"/><path class="cls-2" d="M31.55,43h-23A0.5,0.5,0,0,1,8,42.5V41A9,9,0,0,1,17,32h6.76A8.3,8.3,0,0,1,32,40.29V42.5A0.5,0.5,0,0,1,31.55,43ZM9,42H31V40.29A7.3,7.3,0,0,0,23.76,33H17a8,8,0,0,0-8,8v1Z" transform="translate(0 0)"/><path class="cls-3" d="M20.11,36.68s-4.64-5.18-2.35-5.18h4.68C24.76,31.5,20.11,36.68,20.11,36.68Z" transform="translate(0 0)"/><path class="cls-3" d="M20.11,37.43L19.74,37c-1.09-1.22-3.58-4.19-3-5.44a1,1,0,0,1,1-.58h4.68a1,1,0,0,1,1.06.58c0.56,1.25-1.92,4.21-3,5.43ZM17.76,32a0.41,0.41,0,0,0-.16,0c-0.11.39,1,2.16,2.51,3.9,1.47-1.71,2.59-3.46,2.48-3.91H17.76Z" transform="translate(0 0)"/><path class="cls-4" d="M12.76,31C7.62,31,3.22,27.36,2.48,24.5c-1-4,4-15,4-15H16.76Z" transform="translate(0 0)"/><path class="cls-4" d="M12.76,32C7.23,32,2.39,28.17,1.51,24.75,0.43,20.53,5,10.27,5.57,9.11a1,1,0,0,1,.91-0.58H16.76a1,1,0,0,1,1,1.18l-4,21.46A1,1,0,0,1,12.76,32ZM7.13,10.53c-1.48,3.35-4.4,10.91-3.68,13.72C4,26.45,7.53,29.6,11.94,30l3.62-19.43H7.13Z" transform="translate(0 0)"/><path class="cls-4" d="M23.09,9.53H33.51s4.89,11,3.86,15C36.63,27.36,32.23,31,27.09,31Z" transform="translate(0 0)"/><path class="cls-4" d="M27.09,32a1,1,0,0,1-1-.82l-4-21.46a1,1,0,0,1,1-1.18H33.51a1,1,0,0,1,.91.59c0.51,1.16,5,11.42,3.91,15.63C37.45,28.17,32.62,32,27.09,32Zm-2.8-21.46L27.91,30c4.4-.36,7.92-3.5,8.49-5.71,0.72-2.81-2.11-10.36-3.55-13.72H24.29Z" transform="translate(0 0)"/><path class="cls-3" d="M7.5,24.5v-14h25v14C32.5,34.5,7.5,34.5,7.5,24.5Z" transform="translate(0 0)"/><path class="cls-3" d="M20,33.5a20.17,20.17,0,0,1-9.3-2.05C7.67,29.83,6,27.36,6,24.5v-14A1.5,1.5,0,0,1,7.5,9h25A1.5,1.5,0,0,1,34,10.5v14C34,30.68,26.74,33.5,20,33.5ZM9,12V24.5c0,3.94,5.53,6,11,6s11-2.06,11-6V12H9Z" transform="translate(0 0)"/><circle class="cls-5" cx="26.34" cy="23.7" r="1.77"/><ellipse class="cls-6" cx="20.11" cy="29.09" rx="1.97" ry="0.79"/><path class="cls-4" d="M34,13v4.22l-6.24-3.71L6,17.22V13C6-3,34-3,34,13Z" transform="translate(0 0)"/><path class="cls-4" d="M6,18.22a1,1,0,0,1-1-1V13C5,6.74,9.69,0,20,0h0c10.3,0,15,6.74,15,13v4.22a1,1,0,0,1-1.51.86l-5.92-3.52L6.15,18.21H6ZM20,2C13.73,2,7,5.44,7,13v3l20.61-3.51a1,1,0,0,1,.68.13L33,15.46V13C33,5.45,26.27,2,20,2h0Z" transform="translate(0 0)"/><path class="cls-4" d="M24.77,20.42a0.5,0.5,0,0,1-.07-1L27.82,19A0.5,0.5,0,0,1,28,20l-3.12.45H24.77Z" transform="translate(0 0)"/><circle class="cls-5" cx="13.89" cy="23.7" r="1.77"/><path class="cls-4" d="M15.46,20.42H15.39L12.27,20a0.5,0.5,0,0,1-.42-0.57A0.51,0.51,0,0,1,12.41,19l3.12,0.45A0.5,0.5,0,0,1,15.46,20.42Z" transform="translate(0 0)"/><path class="cls-7" d="M16.6,28.24H11.4A3,3,0,0,1,8.64,25V24.17a0.5,0.5,0,1,1,1,0V25a2,2,0,0,0,1.77,2.21h5.2A2,2,0,0,0,18.37,25V24.17a0.5,0.5,0,0,1,1,0V25A3,3,0,0,1,16.6,28.24Z" transform="translate(0 0)"/><path class="cls-7" d="M28.8,28.24H23.6A3,3,0,0,1,20.84,25V24.17a0.5,0.5,0,0,1,1,0V25a2,2,0,0,0,1.77,2.21h5.2A2,2,0,0,0,30.57,25V24.17a0.5,0.5,0,0,1,1,0V25A3,3,0,0,1,28.8,28.24Z" transform="translate(0 0)"/><path class="cls-7" d="M21.06,24.67H19.14a0.5,0.5,0,0,1,0-1h1.92A0.5,0.5,0,0,1,21.06,24.67Z" transform="translate(0 0)"/><path class="cls-7" d="M9.14,24.67H9.06l-3.16-.47a0.5,0.5,0,1,1,.15-1l3.16,0.47A0.5,0.5,0,0,1,9.14,24.67Z" transform="translate(0 0)"/><path class="cls-7" d="M31.07,24.67a0.5,0.5,0,0,1-.07-1l3.16-.47a0.5,0.5,0,1,1,.15,1l-3.16.47H31.07Z" transform="translate(0 0)"/></svg>