<svg id="レイヤー_1" data-name="レイヤー 1" xmlns="http://www.w3.org/2000/svg" viewBox="0 0 40 43.91"><defs><style>.cls-1{fill:#d3cbc5;}.cls-2{fill:#f2be3b;}.cls-3{fill:#f7931e;}.cls-4{fill:#fff0de;}.cls-5{fill:#1a1a1a;}.cls-6{fill:gray;}</style></defs><title>icon_13</title><ellipse class="cls-1" cx="20" cy="41.91" rx="20" ry="2"/><path class="cls-2" d="M17,32h6.76a7.79,7.79,0,0,1,7.79,7.79h0V42h-23V40.5A8.5,8.5,0,0,1,17,32Z" transform="translate(0 -0.5)"/><path class="cls-2" d="M31.55,42.5h-23A0.5,0.5,0,0,1,8,42V40.5a9,9,0,0,1,8.95-9h6.76A8.3,8.3,0,0,1,32,39.79V42A0.5,0.5,0,0,1,31.55,42.5ZM9,41.5H31V39.79a7.3,7.3,0,0,0-7.29-7.29H17a8,8,0,0,0-8,8v1Z" transform="translate(0 -0.5)"/><path class="cls-3" d="M20.11,34.56L18,35.49s-3.23-4.37-1.51-4.37h7.21c1.77,0-1.54,4.43-1.54,4.43Z" transform="translate(0 -0.5)"/><path class="cls-3" d="M22.48,36.82l-2.39-1.16-2.42,1.07-0.48-.64c-1.84-2.49-2.53-4.23-2-5.19a1.44,1.44,0,0,1,1.34-.77h7.21a1.45,1.45,0,0,1,1.36.78c0.49,1-.22,2.74-2.09,5.25Zm-2.35-3.36,1.71,0.83a13.83,13.83,0,0,0,1.24-2.16h-6a13.85,13.85,0,0,0,1.21,2.12Z" transform="translate(0 -0.5)"/><path class="cls-4" d="M20.09,34.91s-5-5.59-2.54-5.59h5.05C25.11,29.32,20.09,34.91,20.09,34.91Z" transform="translate(0 -0.5)"/><path class="cls-4" d="M20.09,35.66l-0.37-.42c-1.18-1.31-3.85-4.51-3.26-5.83a1.08,1.08,0,0,1,1.09-.6h5.05a1.1,1.1,0,0,1,1.11.61c0.59,1.33-2.08,4.51-3.25,5.82Zm-2.54-5.84a0.42,0.42,0,0,0-.2,0c-0.16.42,1.1,2.41,2.74,4.31,1.63-1.9,2.89-3.89,2.71-4.32H17.55Z" transform="translate(0 -0.5)"/><path class="cls-4" d="M7.5,24V10h25V24c0,5-7.93,7.5-12.5,7.5C15.66,31.5,7.5,29,7.5,24Z" transform="translate(0 -0.5)"/><path class="cls-4" d="M20,33c-4.73,0-14-2.72-14-9V10A1.5,1.5,0,0,1,7.5,8.5h25A1.5,1.5,0,0,1,34,10V24C34,30.36,24.88,33,20,33ZM9,11.5V24c0,3.72,7.12,6,11,6,4.38,0,11-2.39,11-6V11.5H9Z" transform="translate(0 -0.5)"/><circle class="cls-5" cx="26.34" cy="22.7" r="1.77"/><ellipse class="cls-6" cx="20.11" cy="28.09" rx="1.97" ry="0.79"/><path class="cls-5" d="M34,13.5v4.22s-5.66.26-9.23,0c-6.24-.46-15-3.71-15-3.71L6,17.72V13.5C6-2.5,34-2.5,34,13.5Z" transform="translate(0 -0.5)"/><path class="cls-5" d="M28.77,18.84c-1.39,0-2.84,0-4.07-.12-5.44-.4-12.58-2.81-14.68-3.55L6.68,18.43A1,1,0,0,1,5,17.72V13.5C5,7.24,9.69.5,20,.5h0c10.3,0,15,6.74,15,13v4.22a1,1,0,0,1-1,1C33.89,18.73,31.45,18.84,28.77,18.84ZM34,17.72h0ZM9.76,13a1,1,0,0,1,.35.06c0.09,0,8.71,3.21,14.74,3.65,2.61,0.19,6.4.1,8.16,0V13.5c0-7.55-6.73-11-13-11h0c-6.27,0-13,3.44-13,11v1.84l2.08-2A1,1,0,0,1,9.76,13Z" transform="translate(0 -0.5)"/><path class="cls-5" d="M24.77,19.92a0.5,0.5,0,0,1-.07-1l3.12-.45a0.5,0.5,0,1,1,.14,1l-3.12.45H24.77Z" transform="translate(0 -0.5)"/><circle class="cls-5" cx="13.89" cy="22.7" r="1.77"/><path class="cls-5" d="M15.46,19.92H15.39l-3.12-.45a0.5,0.5,0,0,1,.14-1l3.12,0.45A0.5,0.5,0,0,1,15.46,19.92Z" transform="translate(0 -0.5)"/></svg>