<svg id="レイヤー_1" data-name="レイヤー 1" xmlns="http://www.w3.org/2000/svg" viewBox="0 0 40 44.91"><defs><style>.cls-1{fill:#d3cbc5;}.cls-2{fill:#e6e6e6;}.cls-3{fill:#fff0de;}.cls-4{fill:#1a1a1a;}.cls-5{fill:gray;}</style></defs><title>icon_16</title><ellipse class="cls-1" cx="20" cy="42.91" rx="20" ry="2"/><path class="cls-2" d="M17,32.5h6.76a7.79,7.79,0,0,1,7.79,7.79h0V42.5h-23V41A8.5,8.5,0,0,1,17,32.5Z" transform="translate(0 0)"/><path class="cls-2" d="M31.55,43h-23a0.5,0.5,0,0,1-.5-0.5V41A9,9,0,0,1,17,32h6.76a8.3,8.3,0,0,1,8.29,8.29V42.5A0.5,0.5,0,0,1,31.55,43ZM9.05,42h22V40.29A7.3,7.3,0,0,0,23.76,33H17a8,8,0,0,0-8,8v1Z" transform="translate(0 0)"/><path class="cls-3" d="M20.11,36.68s-4.64-5.18-2.35-5.18h4.68C24.76,31.5,20.11,36.68,20.11,36.68Z" transform="translate(0 0)"/><path class="cls-3" d="M20.11,37.43L19.74,37c-1.09-1.22-3.58-4.19-3-5.44a1,1,0,0,1,1-.58h4.68a1.05,1.05,0,0,1,1.06.58c0.56,1.25-1.92,4.21-3,5.43ZM17.76,32a0.38,0.38,0,0,0-.16,0c-0.11.39,1,2.16,2.51,3.9,1.47-1.71,2.59-3.46,2.48-3.91H17.76Z" transform="translate(0 0)"/><path class="cls-4" d="M13.63,32C8.49,32,5,30.24,4.35,27.64,3.27,23.3,6.35,10,6.35,10H16.63Z" transform="translate(0 0)"/><path class="cls-4" d="M13.63,33C8.1,33,4.17,31,3.38,27.88c-1.13-4.52,1.87-17.56,2-18.11a1,1,0,0,1,1-.77H16.63a1,1,0,0,1,1,1.14l-3,22A1,1,0,0,1,13.63,33ZM7.15,11C6.24,15.13,4.53,24.25,5.32,27.4c0.51,2,3.39,3.4,7.44,3.57l2.72-20H7.15Z" transform="translate(0 0)"/><path class="cls-4" d="M32.48,26.41H27.83s-2.7,6.88-2.36,8.87c0.23,1.32,3.43,1.92,5.19.42C32.84,33.85,32.48,26.41,32.48,26.41Z" transform="translate(0 0)"/><path class="cls-4" d="M28.06,37.59a5.27,5.27,0,0,1-1.76-.29,2.54,2.54,0,0,1-1.81-1.84C24.12,33.3,26.43,27.24,26.9,26a1,1,0,0,1,.93-0.63h4.64a1,1,0,0,1,1,1c0.07,1.32.27,8-2.16,10.1A5,5,0,0,1,28.06,37.59Zm0.46-10.17c-1,2.75-2.25,6.61-2.06,7.7a1.6,1.6,0,0,0,.88.4A3.27,3.27,0,0,0,30,34.94c1.11-.95,1.52-4.69,1.49-7.53h-3Z" transform="translate(0 0)"/><path class="cls-4" d="M27.33,33c5.14,0,8.63-2.75,9.28-5.35,1.09-4.34-3-17.64-3-17.64H23.36Z" transform="translate(0 0)"/><path class="cls-4" d="M27.33,34a1,1,0,0,1-1-.83l-4-23a1,1,0,0,1,1-1.17H33.63a1,1,0,0,1,1,.71c0.42,1.39,4.12,13.7,3,18.18C36.84,30.84,33,34,27.33,34ZM24.55,11l3.62,21c4-.27,6.94-2.45,7.47-4.57,0.79-3.14-1.55-12.31-2.75-16.4H24.55Z" transform="translate(0 0)"/><path class="cls-3" d="M7.5,24.5v-14h25v14C32.5,34.5,7.5,34.5,7.5,24.5Z" transform="translate(0 0)"/><path class="cls-3" d="M20,33.5a20.18,20.18,0,0,1-9.3-2.05C7.67,29.83,6,27.36,6,24.5v-14A1.5,1.5,0,0,1,7.5,9h25A1.5,1.5,0,0,1,34,10.5v14C34,30.68,26.74,33.5,20,33.5ZM9,12V24.5c0,3.94,5.53,6,11,6s11-2.06,11-6V12H9Z" transform="translate(0 0)"/><circle class="cls-4" cx="26.34" cy="23.7" r="1.77"/><ellipse class="cls-5" cx="20.11" cy="29.09" rx="1.97" ry="0.79"/><path class="cls-4" d="M34,13v5.22a52.35,52.35,0,0,1-8.55.05c-4.78-.48-15.24-4.74-15.24-4.74a23.65,23.65,0,0,1-2,2.74A15.9,15.9,0,0,1,6,18.22V13C6-3,34-3,34,13Z" transform="translate(0 0)"/><path class="cls-4" d="M29.08,19.44c-1.21,0-2.5,0-3.73-.17-4.16-.42-12.21-3.49-14.75-4.5A21.55,21.55,0,0,1,9,16.94,16.69,16.69,0,0,1,6.56,19,1,1,0,0,1,5,18.22V13C5,6.74,9.69,0,20,0h0c10.3,0,15,6.74,15,13v5.22a1,1,0,0,1-.91,1C34,19.23,31.73,19.44,29.08,19.44ZM34,18.22h0ZM10.21,12.54a1,1,0,0,1,.38.07c0.1,0,10.38,4.21,15,4.67a48.48,48.48,0,0,0,7.45,0V13C33,5.45,26.27,2,20,2h0C13.73,2,7,5.44,7,13v3.12a7,7,0,0,0,.5-0.51A22.6,22.6,0,0,0,9.35,13,1,1,0,0,1,10.21,12.54Z" transform="translate(0 0)"/><circle class="cls-4" cx="13.89" cy="23.7" r="1.77"/><path class="cls-4" d="M27.76,20.1l-0.1,0a4.12,4.12,0,0,0-1.46-.28,3.7,3.7,0,0,0-1.45.28,0.25,0.25,0,0,1-.22-0.45,4.13,4.13,0,0,1,1.67-.33,4.56,4.56,0,0,1,1.66.32A0.25,0.25,0,0,1,27.76,20.1Z" transform="translate(0 0)"/><path class="cls-4" d="M15.34,20.1l-0.1,0a4.27,4.27,0,0,0-1.47-.28,3.66,3.66,0,0,0-1.44.28,0.25,0.25,0,0,1-.22-0.45,4.1,4.1,0,0,1,1.66-.33,4.73,4.73,0,0,1,1.67.32A0.25,0.25,0,0,1,15.34,20.1Z" transform="translate(0 0)"/></svg>