<svg id="レイヤー_1" data-name="レイヤー 1" xmlns="http://www.w3.org/2000/svg" viewBox="0 0 40 44.91"><defs><style>.cls-1{fill:#d3cbc5;}.cls-2{fill:gray;}.cls-3{fill:#fff0de;}.cls-4{fill:#1a1a1a;}.cls-5{fill:#534741;}.cls-6{fill:#736357;}</style></defs><title>icon_10</title><ellipse class="cls-1" cx="20" cy="42.91" rx="20" ry="2"/><path class="cls-2" d="M17,32.5h6.76a7.79,7.79,0,0,1,7.79,7.79h0V42.5h-23V41A8.5,8.5,0,0,1,17,32.5Z" transform="translate(0 0)"/><path class="cls-2" d="M31.55,43h-23A0.5,0.5,0,0,1,8,42.5V41A9,9,0,0,1,17,32h6.76A8.3,8.3,0,0,1,32,40.29V42.5A0.5,0.5,0,0,1,31.55,43ZM9,42H31V40.29A7.3,7.3,0,0,0,23.76,33H17a8,8,0,0,0-8,8v1Z" transform="translate(0 0)"/><path class="cls-3" d="M20.11,36.68s-4.64-5.18-2.35-5.18h4.68C24.76,31.5,20.11,36.68,20.11,36.68Z" transform="translate(0 0)"/><path class="cls-3" d="M20.11,37.43L19.74,37c-1.09-1.22-3.58-4.19-3-5.44a1,1,0,0,1,1-.58h4.68a1,1,0,0,1,1.06.58c0.56,1.25-1.92,4.21-3,5.43ZM17.76,32a0.41,0.41,0,0,0-.16,0c-0.11.39,1,2.16,2.51,3.9,1.47-1.71,2.59-3.46,2.48-3.92H17.76Z" transform="translate(0 0)"/><path class="cls-4" d="M12.63,33C7.49,33,4,30.24,3.35,27.64,2.27,23.3,6.35,10,6.35,10H16.63Z" transform="translate(0 0)"/><path class="cls-4" d="M12.63,34C7,34,3.12,30.84,2.38,27.88,1.26,23.4,5,11.09,5.39,9.71a1,1,0,0,1,1-.71H16.63a1,1,0,0,1,1,1.17l-4,23A1,1,0,0,1,12.63,34ZM7.09,11C5.89,15.09,3.54,24.26,4.32,27.4c0.53,2.12,3.42,4.3,7.47,4.57l3.65-21H7.09Z" transform="translate(0 0)"/><path class="cls-4" d="M27.33,33c5.14,0,8.63-2.75,9.28-5.35,1.09-4.34-3-17.64-3-17.64H23.36Z" transform="translate(0 0)"/><path class="cls-4" d="M27.33,34a1,1,0,0,1-1-.83l-4-23a1,1,0,0,1,1-1.17H33.63a1,1,0,0,1,1,.71c0.42,1.39,4.12,13.7,3,18.17C36.84,30.84,33,34,27.33,34ZM24.55,11l3.62,21c4-.27,6.94-2.45,7.47-4.57,0.79-3.14-1.55-12.3-2.75-16.4H24.55Z" transform="translate(0 0)"/><path class="cls-3" d="M7.5,24.5v-14h25v14C32.5,34.5,7.5,34.5,7.5,24.5Z" transform="translate(0 0)"/><path class="cls-3" d="M20,33.5a20.17,20.17,0,0,1-9.3-2.05C7.67,29.83,6,27.36,6,24.5v-14A1.5,1.5,0,0,1,7.5,9h25A1.5,1.5,0,0,1,34,10.5v14C34,30.68,26.74,33.5,20,33.5ZM9,12V24.5c0,3.94,5.53,6,11,6s11-2.06,11-6V12H9Z" transform="translate(0 0)"/><circle class="cls-4" cx="26.34" cy="23.7" r="1.77"/><ellipse class="cls-2" cx="20.11" cy="29.09" rx="1.97" ry="0.79"/><path class="cls-4" d="M34,13v4.22L13.76,13.51,6,17.22V13C6-3,34-3,34,13Z" transform="translate(0 0)"/><path class="cls-4" d="M34,18.22l-0.18,0L13.9,14.55,6.41,18.12A1,1,0,0,1,5,17.22V13C5,6.74,9.69,0,20,0h0c10.3,0,15,6.74,15,13v4.22A1,1,0,0,1,34,18.22ZM13.76,12.51l0.18,0L33,16V13C33,5.45,26.27,2,20,2h0C13.73,2,7,5.44,7,13v2.63l6.35-3A1,1,0,0,1,13.76,12.51Z" transform="translate(0 0)"/><path class="cls-5" d="M27.89,20H27.8l-3.12-.55a0.5,0.5,0,0,1,.17-1L28,19A0.5,0.5,0,0,1,27.89,20Z" transform="translate(0 0)"/><circle class="cls-4" cx="13.89" cy="23.7" r="1.77"/><path class="cls-5" d="M12.34,20a0.5,0.5,0,0,1-.09-1l3.12-.55a0.5,0.5,0,0,1,.17,1L12.43,20H12.34Z" transform="translate(0 0)"/><path class="cls-6" d="M21.07,23.9H19.15a0.5,0.5,0,0,1,0-1h1.92A0.5,0.5,0,0,1,21.07,23.9Z" transform="translate(0 0)"/><path class="cls-6" d="M9.15,23.9H9.07l-3.16-.47a0.5,0.5,0,1,1,.15-1l3.16,0.47A0.5,0.5,0,0,1,9.15,23.9Z" transform="translate(0 0)"/><path class="cls-6" d="M31.07,23.9a0.5,0.5,0,0,1-.07-1l3.16-.47a0.5,0.5,0,1,1,.15,1l-3.16.47H31.07Z" transform="translate(0 0)"/><path class="cls-6" d="M14,28.11c-1,0-3.5-.08-4.22-0.79S8.7,24,8.65,23.45a0.5,0.5,0,0,1,1-.1,8,8,0,0,0,.86,3.26,7.9,7.9,0,0,0,3.51.5,7.9,7.9,0,0,0,3.51-.5,8,8,0,0,0,.86-3.26,0.51,0.51,0,0,1,.55-0.45,0.5,0.5,0,0,1,.45.55c0,0.5-.34,3.06-1.14,3.87S15,28.11,14,28.11Z" transform="translate(0 0)"/><path class="cls-6" d="M26.33,28.12c-1.84,0-3.69-.27-4.22-0.8C21.3,26.51,21,24,21,23.45a0.5,0.5,0,0,1,.45-0.55,0.49,0.49,0,0,1,.55.45,8,8,0,0,0,.86,3.26c0.66,0.66,6.37.66,7,0a8,8,0,0,0,.86-3.26,0.51,0.51,0,0,1,.55-0.45,0.5,0.5,0,0,1,.45.55c0,0.5-.34,3.06-1.14,3.87C30,27.85,28.17,28.12,26.33,28.12Z" transform="translate(0 0)"/></svg>